/* XPM */
static char *_fc9901b0b664db6961c8ddab9bce0db[] = {
/* columns rows colors chars-per-pixel */
"32 32 188 2 ",
"   c #00002B",
".  c #000034",
"X  c #000035",
"o  c #000438",
"O  c #00083C",
"+  c #000745",
"@  c #031349",
"#  c #02154C",
"$  c #000752",
"%  c #000956",
"&  c #011D53",
"*  c #00155C",
"=  c #062151",
"-  c #152252",
";  c #192151",
":  c #26315F",
">  c #001961",
",  c #072A65",
"<  c #05296F",
"1  c #0A316F",
"2  c #0A336E",
"3  c #123365",
"4  c #14386D",
"5  c #002777",
"6  c #0E3775",
"7  c #1B3F71",
"8  c #1D447A",
"9  c #495179",
"0  c #585F7E",
"q  c #023484",
"w  c #002892",
"e  c #003790",
"r  c #215092",
"t  c #0344A0",
"y  c #0B4DA3",
"u  c #0C4DA2",
"i  c #0952A6",
"p  c #1A51A4",
"a  c #1054A9",
"s  c #1F5FAB",
"d  c #004EBE",
"f  c #0056B2",
"g  c #2257A6",
"h  c #205DA8",
"j  c #2F6EAF",
"k  c #286AB5",
"l  c #2A6EBB",
"z  c #3975B9",
"x  c #536088",
"c  c #666D88",
"v  c #68799B",
"b  c #737F9C",
"n  c #436DAF",
"m  c #5C7FAD",
"M  c #297EC3",
"N  c #7D869C",
"B  c #7D8BA3",
"V  c #2D83CC",
"C  c #3494CE",
"Z  c #048EFF",
"A  c #0890FF",
"S  c #1194FF",
"D  c #1C9AFF",
"F  c #2599FD",
"G  c #2899F9",
"H  c #2B9FFE",
"J  c #339EFA",
"K  c #2FA2FF",
"L  c #2DACFF",
"P  c #3AA3F8",
"I  c #3FA5F9",
"U  c #6B9CC8",
"Y  c #49B7FE",
"T  c #5AB2F5",
"R  c #54B0F9",
"E  c #52B4F9",
"W  c #58B7FF",
"Q  c #5CB8FF",
"!  c #64ACE5",
"~  c #71B6EC",
"^  c #6EBEF4",
"/  c #63BDF9",
"(  c #60BEFA",
")  c #60BAFF",
"_  c #6CBEFF",
"`  c #76C0FA",
"'  c #849ABA",
"]  c #8E9EBA",
"[  c #949AB2",
"{  c #95A5BD",
"}  c #97A9BD",
"|  c #A3A7BA",
" . c #8AAACA",
".. c #9EB1C3",
"X. c #87B5D4",
"o. c #AAB3C2",
"O. c #A9BCCD",
"+. c #AEBFCE",
"@. c #A5C1D7",
"#. c #B2CBDB",
"$. c #B4CDD9",
"%. c #BAC9DA",
"&. c #BCCEDA",
"*. c #BED0DA",
"=. c #8CC0E8",
"-. c #8EC3EB",
";. c #8AC3ED",
":. c #90C7EF",
">. c #80C2F3",
",. c #87C5F1",
"<. c #85C5F7",
"1. c #8BC6FF",
"2. c #8EC9FF",
"3. c #94CAF5",
"4. c #94CCFF",
"5. c #9ACCFB",
"6. c #9CCDFF",
"7. c #A6CFE8",
"8. c #B7D2E2",
"9. c #B9D4E6",
"0. c #BED5E4",
"q. c #B2D1E8",
"w. c #B6D4EB",
"e. c #B1D2EE",
"r. c #B3D6EC",
"t. c #A5CFF2",
"y. c #A7D0F9",
"u. c #A2D0FF",
"i. c #C0C7D3",
"p. c #C3D1DA",
"a. c #C5D3DA",
"s. c #C5D3DB",
"d. c #C7D6DC",
"f. c #C4D6DF",
"g. c #C6D7DF",
"h. c #C7D7DF",
"j. c #C8D7DE",
"k. c #CCD6DC",
"l. c #C7D8DF",
"z. c #CAD8DE",
"x. c #CFD9DC",
"c. c #D5DBD7",
"v. c #D6DBD6",
"b. c #DDDED7",
"n. c #D1DAD9",
"m. c #D6DBDA",
"M. c #D0DADC",
"N. c #D3DBDE",
"B. c #D8DDDB",
"V. c #DFDED9",
"C. c #E1DFD6",
"Z. c #E4DFD8",
"A. c #E3E0D6",
"S. c #ECE3D5",
"D. c #EEE5D7",
"F. c #E4E1D9",
"G. c #FCEBD6",
"H. c #FFF2D9",
"J. c #C9D8E2",
"K. c #CCDBE1",
"L. c #CFDEE3",
"P. c #C9D9E4",
"I. c #D1DFE3",
"U. c #D6E0E0",
"Y. c #D4E2E5",
"T. c #D5E3E7",
"R. c #D7E4E7",
"E. c #D9E2E2",
"W. c #DBE4E3",
"Q. c #D8E4E5",
"!. c #DCEAEC",
"~. c #E3E6E2",
"^. c #E9E8E2",
"/. c #EBEDE4",
"(. c #E0EDEF",
"). c #E9EFE9",
"_. c #F5F7EB",
"`. c #FFFFED",
"'. c #E8F2F2",
"]. c #E8F6F5",
"[. c #EDF7F7",
"{. c #EEFAF9",
"}. c #F2FAF2",
"|. c #FCFFF4",
" X c #F3FEFD",
".X c #FEFFF9",
"XX c #F8FFFF",
"oX c #FFFFFE",
/* pixels */
"z.z.z.z.z.z.z.z.z.z.z.z.z.z.z.z.z.z.z.z.z.z.z.z.z.z.z.z.z.z.z.z.",
"z.z.z.z.z.z.z.z.z.z.z.z.z.z.z.z.z.z.z.z.z.z.z.z.z.z.z.z.z.z.z.z.",
"z.z.z.z.z.z.z.z.z.z.z.z.z.z.z.z.z.z.z.z.z.z.z.z.z.z.z.z.z.z.z.z.",
"z.z.z.z.z.z.z.z.z.z.z.z.z.z.z.z.z.z.z.z.z.z.z.z.n.N.l.z.z.z.z.z.",
"z.z.z.z.z.z.z.z.z.z.z.z.z.z.z.z.z.z.z.l.z.z.n.b.0.q.x.z.z.z.z.z.",
"z.z.z.z.z.z.z.z.z.z.z.z.z.z.z.z.z.z.z.n.c.n.P.3.<.g.N.z.z.z.z.z.",
"z.z.z.z.z.z.z.z.z.z.z.z.z.z.z.z.x.c.c.l.w.y._ ` x.c.l.z.z.z.z.z.",
"z.z.z.z.z.z.z.z.z.z.z.z.l.z.n.c.z.9.t.6.2.) >.b.m.l.z.z.z.z.z.z.",
"z.z.z.z.z.z.z.z.z.z.z.g.V.V.J.e.5.4.4.1.Q ,.C.m.g.z.z.z.z.z.z.z.",
"z.z.z.z.z.z.z.z.z.z.z.x.7.3.1.2.u.u.1.W :.A.n.g.z.z.z.z.z.z.z.z.",
"z.z.z.z.z.z.z.z.z.z.z.Z.^ L / / R I D ;.S.N.j.z.z.z.z.z.z.z.z.z.",
"z.z.z.z.z.z.z.z.z.z.z.V.8.Y E P G Z ~ S.N.g.z.z.z.z.z.z.z.z.z.z.",
"z.z.z.z.z.z.z.z.z.z.z.x.F.T F J S =.G.x.g.j.z.z.z.z.z.z.z.z.z.z.",
"z.z.z.z.z.z.z.z.z.z.z.g.D.=.A K r.H.l.l.x.j.z.z.z.z.z.z.z.z.z.z.",
"z.z.z.z.z.z.z.z.z.z.z.j.B.g.H ! X.V #.~.g.j.z.z.z.z.z.z.z.z.z.z.",
"z.z.z.z.z.z.z.z.z.z.z.z.g.N.I.C d M /.N.g.z.z.z.z.z.z.z.z.z.z.z.",
"z.z.z.z.z.z.z.z.z.z.z.z.j.^.$.f j U n &.E.j.z.z.z.z.z.z.z.z.z.z.",
"z.z.z.z.z.z.z.z.z.z.z.z.j.U.@.%.p.g w  ._.g.z.z.z.z.z.z.z.z.z.z.",
"z.z.z.z.z.z.z.z.z.z.z.z.z.*.`.E.p u i z ).x.z.z.z.z.z.z.z.z.z.z.",
"z.z.z.z.z.z.z.z.z.z.z.j.s.|.#.t y k s q +.).g.z.z.z.z.z.z.z.z.z.",
"z.z.z.z.z.z.z.z.z.j.j.k..XO.e a l h r 5 m }.j.z.z.z.z.z.z.z.z.z.",
"z.z.z.z.z.z.z.z.z.j.g.oX..* 2 8 4 3 , % < I.Q.z.z.z.z.z.z.z.z.z.",
"z.z.z.z.z.z.z.z.g.j.oX{ * 6 7 = o X - c o.K.K.z.z.z.z.z.z.z.z.z.",
"z.z.z.z.z.z.z.g.z.oX] > 2 & . @ 9 [ T.XX'.j.j.k.z.z.z.z.z.z.z.z.",
"z.z.z.z.z.j.k.n.oX' $ + O : b i.[. XR.a.g.z.z.z.z.z.z.z.z.z.z.z.",
"z.z.z.z.z.d.T.oXv   # 0 | (.XX(.j.g.j.z.j.z.z.z.z.z.z.z.z.z.z.z.",
"z.z.z.z.g.T.T.x ; N k. X{.I.a.g.j.x.z.z.x.j.z.z.z.z.z.z.z.z.z.z.",
"z.z.z.z.j.T.} B !.XX!.d.g.j.j.x.z.j.z.z.z.z.z.z.z.z.z.z.z.z.z.z.",
"z.z.z.z.j.g.L.].I.a.k.z.z.z.z.z.z.z.z.z.z.z.z.z.z.z.z.z.z.z.z.z.",
"z.z.z.z.j.x.j.g.z.z.z.z.z.z.z.z.z.z.z.z.z.z.z.z.z.z.z.z.z.z.z.z.",
"z.z.z.z.z.z.k.j.z.z.z.z.z.z.z.z.z.z.z.z.z.z.z.z.z.z.z.z.z.z.z.z.",
"z.z.z.z.z.j.x.j.z.z.z.z.z.z.z.z.z.z.z.z.z.z.z.z.z.z.z.z.z.z.z.z."
};
