/* XPM */
static char *c9e02e7b44854ee8c3d15c78ddf97fb9[] = {
/* columns rows colors chars-per-pixel */
"64 64 86 1 ",
"  c #176EB4",
". c #186EB4",
"X c #1770B6",
"o c #1970B6",
"O c #1874BA",
"+ c #1A79BD",
"@ c #2060AC",
"# c #2967AF",
"$ c #2D69B0",
"% c #326DB2",
"& c #2D7EBD",
"* c #3A72B4",
"= c #4177B6",
"- c #467BB7",
"; c #477CB8",
": c #4A7EB9",
"> c #177CC1",
", c #197DC1",
"< c #5384BB",
"1 c #5887BD",
"2 c #5988BD",
"3 c #618EBF",
"4 c #2382C4",
"5 c #2985C5",
"6 c #2F8AC6",
"7 c #2586C8",
"8 c #2688CA",
"9 c #2B89C9",
"0 c #378DC6",
"q c #368BCA",
"w c #398CCB",
"e c #3D91CC",
"r c #4393CA",
"t c #4C98CC",
"y c #559DCD",
"u c #6691C1",
"i c #6B95C2",
"p c #6F98C3",
"a c #759CC5",
"s c #5AA1CF",
"d c #60A2CD",
"f c #6BA7CF",
"g c #7DA1C7",
"h c #7DA2C8",
"j c #76ABCE",
"k c #62A4D0",
"l c #68A7D1",
"z c #75ADD2",
"x c #7DB2D4",
"c c #69B5E4",
"v c #71B7E3",
"b c #74B9E4",
"n c #7BBCE3",
"m c #83A7CA",
"M c #8BACCC",
"N c #93B1CE",
"B c #83B4D4",
"V c #89B7D4",
"C c #8DBAD6",
"Z c #99B5D0",
"A c #95BDD6",
"S c #9FBAD1",
"D c #A3BDD3",
"F c #83BFE3",
"G c #9BC0D6",
"H c #9FC3D9",
"J c #ADC3D6",
"K c #A2C3D8",
"L c #A8C7DA",
"P c #AFCADA",
"I c #B3C8D7",
"U c #B5CCDA",
"Y c #BCCEDA",
"T c #BCD2DE",
"R c #87C0E2",
"E c #8CC2E2",
"W c #95C5E2",
"Q c #9BC7E1",
"! c #9EC8E1",
"~ c #A3CAE1",
"^ c #ABCDE0",
"/ c #B1CFE0",
"( c #B5D1E0",
") c #C4D5DD",
"_ c #C9D7DE",
"` c #CAD8DE",
/* pixels */
"````````````````````````````````````````````````````````````````",
"````````````````````````````````````````````````````````````````",
"````````````````````````````````````````````````````````````````",
"````````````````````````````````````````````````````````````````",
"````````````````````````````````````````````````````````````````",
"````````````````````````````````````````````_/^`````````````````",
"```````````````````````````````````````````)WbT`````````````````",
"``````````````````````````````````````````^ncW``````````````````",
"````````````````````````````````````````(EvcvT``````````````````",
"``````````````````````````````````````)~bcccW```````````````````",
"`````````````````````````````````````/nccccv(```````````````````",
"```````````````````````````````````TEvcccccE````````````````````",
"``````````````````````````````````~nccccccv(````````````````````",
"````````````````````````````````(RccccccccR`````````````````````",
"``````````````````````````````)Qbccccccccv/`````````````````````",
"`````````````````````````````/nccccccccccn)`````````````````````",
"```````````````````````````TEcccccccccccc^``````````````````````",
"`````````````````````````)~bccccccccccccF_``````````````````````",
"````````````````````````(Fcccccccccccccc^_``````````````````````",
"``````````````````````)Wvccccccccccccccn)```````````````````````",
"````````````````````_^ncccccccccccccccc~````````````````````````",
"```````````````````TEcccccccccccccccccnT````````````````````````",
"`````````````````)Qbcccccccccccccccccc!`````````````````````````",
"`````````````````PewwwwwwwqwwwwwwwwwwqB`````````````````````````",
"``````````````````l86qqqqwwqqqqqqqqww,wT````````````````````````",
"``````````````````P979qqqqqqwqwqqqww8>,V````````````````````````",
"```````````````````k7786wwqqqqqqqqq9,,,rT```````````````````````",
"```````````````````L97779qqwwqqwqqq4,,,+A```````````````````````",
"```````````````````_s877779wqqqqww7>,,,,t)``````````````````````",
"````````````````````H8787777qwqqw6+,,,,,,D``````````````````````",
"````````````````````_t88777749www,>,,,,+>t_`````````````````````",
"`````````````````````G887777774q7,,,,>,,>4!`````````````````````",
"`````````````````````)t877777774X+,,,,,,,,y`````````````````````",
"``````````````````````C97777755o  O,,,,,,,4L````````````````````",
"``````````````````````)e777777+   XX+,,,,,,s````````````````````",
"```````````````````````V777774       X,,,,,5I```````````````````",
"```````````````````````Te7775o         O,,,,f_``````````````````",
"````````````````````````x777O           X+,,5Y``````````````````",
"````````````````````````(w74              O,,j``````````````````",
"`````````````````````````z7X   .          .X+6Y`````````````````",
"````````````````````````_U&..... XXX    ... ..j`````````````````",
"````````````````````````_J#@@@@@@@@@@@@@@@@@#3Y`````````````````",
"````````````````````````_3@@@@@@@@@@@@@@@@@-S```````````````````",
"````````````````````````J#@@@@@@@@@@@@@@@%g)````````````````````",
"```````````````````````_i@@@@@@@@@@@@@@#1J``````````````````````",
"``````````````````````_U$@@@@@@@@@@@@@*N_```````````````````````",
"``````````````````````_a@@@@@@@@@@@@#pY`````````````````````````",
"`````````````````````_Y%@@@@@@@@@@@:D_``````````````````````````",
"``````````````````````g@@@@@@@@@@%m)````````````````````````````",
"`````````````````````Y*@@@@@@@@@3I_`````````````````````````````",
"`````````````````````m@@@@@@@@=Z_```````````````````````````````",
"````````````````````)=@@@@@@%aY`````````````````````````````````",
"````````````````````M@@@@@@<J```````````````````````````````````",
"```````````````````):@@@@%M)````````````````````````````````````",
"```````````````````Z@@@#uY_`````````````````````````````````````",
"``````````````````)<@@-S_`_`````````````````````````````````````",
"``````````````````D@%g)_````````````````````````````````````````",
"`````````````````)11J```````````````````````````````````````````",
"`````````````````JM_````````````````````````````````````````````",
"````````````````___`````````````````````````````````````````````",
"````````````````````````````````````````````````````````````````",
"````````````````````````````````````````````````````````````````",
"````````````````````````````````````````````````````````````````",
"````````````````````````````````````````````````````````````````"
};
