/* XPM */
static char *_41805614b56490ec46e008f3d3bcbba[] = {
/* columns rows colors chars-per-pixel */
"64 64 228 2 ",
"   c #000036",
".  c #00023C",
"X  c #000442",
"o  c #000C44",
"O  c #00164C",
"+  c #021A4E",
"@  c #041E54",
"#  c #00155B",
"$  c #001B5E",
"%  c #0D234F",
"&  c #072357",
"*  c #0F2857",
"=  c #0E2B5B",
"-  c #112C5D",
";  c #14305F",
":  c #001B62",
">  c #012465",
",  c #062A64",
"<  c #00226E",
"1  c #042A69",
"2  c #0B2C6A",
"3  c #122F62",
"4  c #0A316F",
"5  c #133162",
"6  c #133669",
"7  c #16396E",
"8  c #1C3D6F",
"9  c #002775",
"0  c #0F3674",
"q  c #143B74",
"w  c #183F78",
"e  c #213463",
"r  c #293A66",
"t  c #1A4075",
"y  c #1B437C",
"u  c #1E487F",
"i  c #2F416D",
"p  c #3D4E76",
"a  c #4B5A7E",
"s  c #043684",
"d  c #0B3B82",
"f  c #023A8B",
"g  c #003F9C",
"h  c #144084",
"j  c #1A4584",
"k  c #194789",
"l  c #1C498B",
"z  c #00439E",
"x  c #1C4D91",
"c  c #205094",
"v  c #37649D",
"b  c #024AA4",
"n  c #0C53A3",
"m  c #1455A5",
"M  c #1658A6",
"N  c #1F5CA6",
"B  c #145DAA",
"V  c #1E5FAB",
"C  c #0057B7",
"Z  c #225BA3",
"A  c #215FAA",
"S  c #0163BA",
"D  c #1D61B2",
"F  c #136EBA",
"G  c #2361AB",
"H  c #2B66AE",
"J  c #356CAF",
"K  c #2365B2",
"L  c #2368B7",
"P  c #2469B9",
"I  c #2C79BE",
"U  c #3474B3",
"Y  c #3C71B2",
"T  c #3A76B9",
"R  c #307EBE",
"E  c #415B87",
"W  c #4D5C81",
"Q  c #5A6986",
"!  c #5A6B8D",
"~  c #677A98",
"^  c #5D7BA4",
"/  c #006CC7",
"(  c #127AD1",
")  c #77869E",
"_  c #5F80AA",
"`  c #5584BA",
"'  c #5688BD",
"]  c #6E88AA",
"[  c #7888A3",
"{  c #758CAB",
"}  c #7C94AF",
"|  c #6A8EBD",
" . c #7292BD",
".. c #0681CE",
"X. c #0884D1",
"o. c #2382C7",
"O. c #2C8BCE",
"+. c #2180D3",
"@. c #368BD3",
"#. c #308FD9",
"$. c #0990FF",
"%. c #1695FF",
"&. c #269CFE",
"*. c #2D9DFA",
"=. c #359FFA",
"-. c #389FF8",
";. c #2FADFF",
":. c #34A1FA",
">. c #3CA4F9",
",. c #39A9FD",
"<. c #4590C8",
"1. c #6C9EC8",
"2. c #67A1CD",
"3. c #6AA3CE",
"4. c #77ADC9",
"5. c #6AADD8",
"6. c #74AFDC",
"7. c #43A6F7",
"8. c #41A5F8",
"9. c #4BAFFC",
"0. c #50ADFA",
"q. c #40B2FE",
"w. c #4CB6FC",
"e. c #50B5F7",
"r. c #58B6F9",
"t. c #57B8F9",
"y. c #5BBAF9",
"u. c #73B8EF",
"i. c #7DBCED",
"p. c #61B1F0",
"a. c #69B4F0",
"s. c #6BBDF4",
"d. c #61B5FA",
"f. c #63BCFD",
"g. c #6BBDFD",
"h. c #73BFFC",
"j. c #6EC1FC",
"k. c #77C2FF",
"l. c #7BC2FC",
"z. c #8998AF",
"x. c #879EB7",
"c. c #8CA5BF",
"v. c #97A5B9",
"b. c #98A5B8",
"n. c #91A8BE",
"m. c #9CAFBF",
"M. c #A6B1BD",
"N. c #82A4C8",
"B. c #89AACA",
"V. c #9CB2C4",
"C. c #81AFD2",
"Z. c #91BAD9",
"A. c #A3B5C6",
"S. c #A8B4C3",
"D. c #A6B9C9",
"F. c #AABCCD",
"G. c #A1BBD1",
"H. c #85BEEB",
"J. c #B5C2CE",
"K. c #B2C4D4",
"L. c #BCCCD6",
"P. c #B0CBDB",
"I. c #BED2DC",
"U. c #85C5EF",
"Y. c #8DC3EA",
"T. c #94C4E8",
"R. c #96CAEC",
"E. c #86C4F6",
"W. c #8AC5F3",
"Q. c #83C4FC",
"!. c #89C6FD",
"~. c #8EC9FF",
"^. c #92C8F7",
"/. c #94CAFF",
"(. c #9BCDFE",
"). c #A5CAE5",
"_. c #ACCDE6",
"`. c #ACD0E7",
"'. c #ADD1EF",
"]. c #B5D2E3",
"[. c #BBD4E5",
"{. c #B4D3EA",
"}. c #BBD6EB",
"|. c #A2CEF6",
" X c #A1CFFF",
".X c #AAD0F2",
"XX c #A6D2FF",
"oX c #ABD2FC",
"OX c #C1CFD7",
"+X c #C6D5DD",
"@X c #C9D7DD",
"#X c #C7D8DF",
"$X c #CAD8DE",
"%X c #D5DBD7",
"&X c #DEDED7",
"*X c #D3DBDB",
"=X c #DADDDA",
"-X c #E3DFD9",
";X c #E3E0D7",
":X c #EEE5D7",
">X c #E3E2DA",
",X c #E9E4DB",
"<X c #F2E7D7",
"1X c #FFF6D9",
"2X c #C3D7E2",
"3X c #CDDBE0",
"4X c #D1DEE2",
"5X c #D4E1E5",
"6X c #DBE4E4",
"7X c #D4E5EA",
"8X c #D9E6E9",
"9X c #DFEBEC",
"0X c #E5E6E2",
"qX c #E5EBE6",
"wX c #EAEDE5",
"eX c #E2EDEC",
"rX c #EAEFE8",
"tX c #EDF2EA",
"yX c #F1F4EA",
"uX c #FBF5E8",
"iX c #FEFCEE",
"pX c #E6F3F3",
"aX c #E9F5F4",
"sX c #EEFBF8",
"dX c #F2FAF4",
"fX c ivory",
"gX c #F4FFFB",
"hX c #FBFFFB",
/* pixels */
"$X$X$X$X$X$X$X$X$X$X$X$X$X$X$X$X$X$X$X$X$X$X$X$X$X$X$X$X$X$X$X$X$X$X$X$X$X$X$X$X$X$X$X$X$X$X$X$X$X$X$X$X$X$X$X$X$X$X$X$X$X$X$X$X",
"$X$X$X$X$X$X$X$X$X$X$X$X$X$X$X$X$X$X$X$X$X$X$X$X$X$X$X$X$X$X$X$X$X$X$X$X$X$X$X$X$X$X$X$X$X$X$X$X$X$X$X$X$X$X$X$X$X$X$X$X$X$X$X$X",
"$X$X$X$X$X$X$X$X$X$X$X$X$X$X$X$X$X$X$X$X$X$X$X$X$X$X$X$X$X$X$X$X$X$X$X$X$X$X$X$X$X$X$X$X$X$X$X$X$X$X$X$X$X$X$X$X$X$X$X$X$X$X$X$X",
"$X$X$X$X$X$X$X$X$X$X$X$X$X$X$X$X$X$X$X$X$X$X$X$X$X$X$X$X$X$X$X$X$X$X$X$X$X$X$X$X$X$X$X$X$X$X$X$X$X$X$X$X$X$X$X$X$X$X$X$X$X$X$X$X",
"$X$X$X$X$X$X$X$X$X$X$X$X$X$X$X$X$X$X$X$X$X$X$X$X$X$X$X$X$X$X$X$X$X$X$X$X$X$X$X$X$X$X$X$X$X$X$X$X$X$X$X$X$X$X$X$X$X$X$X$X$X$X$X$X",
"$X$X$X$X$X$X$X$X$X$X$X$X$X$X$X$X$X$X$X$X$X$X$X$X$X$X$X$X$X$X$X$X$X$X$X$X$X$X$X$X$X$X$X$X$X$X$X$X$X$X$X@X$X$X$X$X$X$X$X$X$X$X$X$X",
"$X$X$X$X$X$X$X$X$X$X$X$X$X$X$X$X$X$X$X$X$X$X$X$X$X$X$X$X$X$X$X$X$X$X$X$X$X$X$X$X$X$X$X$X$X$X$X$X$X$X$X*X$X$X$X$X$X$X$X$X$X$X$X$X",
"$X$X$X$X$X$X$X$X$X$X$X$X$X$X$X$X$X$X$X$X$X$X$X$X$X$X$X$X$X$X$X$X$X$X$X$X$X$X$X$X$X$X$X$X$X$X$X$X$X$X$X$X$X$X$X$X$X$X$X$X$X$X$X$X",
"$X$X$X$X$X$X$X$X$X$X$X$X$X$X$X$X$X$X$X$X$X$X$X$X$X$X$X$X$X$X$X$X$X$X$X$X$X$X$X$X$X$X$X$X$X$X$X$X*X*X*X2X#X$X$X$X$X$X$X$X$X$X$X$X",
"$X$X$X$X$X$X$X$X$X$X$X$X$X$X$X$X$X$X$X$X$X$X$X$X$X$X$X$X$X$X$X$X$X$X$X$X$X$X$X$X$X$X$X$X@X@X$X%X*X[.^.{.*X$X$X$X$X@X$X$X$X$X$X$X",
"$X$X$X$X$X$X$X$X$X$X$X$X$X$X$X$X$X$X$X$X$X$X$X$X$X$X$X$X$X$X$X$X$X$X$X$X$X$X$X$X*X$X$X$X%X*X2X}./.g.`.*X3X@X$X$X$X$X$X$X$X$X$X$X",
"$X$X$X$X$X$X$X$X$X$X$X$X$X$X$X$X$X$X$X$X$X$X$X$X$X$X$X$X$X$X$X$X$X$X$X$X$X$X$X$X$X%X%X$X}..X(.k.f.[.&X$X#X@X$X$X$X$X$X$X$X$X$X$X",
"$X$X$X$X$X$X$X$X$X$X$X$X$X$X$X$X$X$X$X$X$X$X$X$X$X$X$X$X$X$X$X$X$X$X@X$X$X$X$X%X$X+X.X(././.h.g.+X&X#X$X$X$X$X$X$X$X$X$X$X$X$X$X",
"$X$X$X$X$X$X$X$X$X$X$X$X$X$X$X$X$X$X$X$X$X$X$X$X$X$X$X$X$X$X$X$X$X$X@X$X%X%X$X{.|.~./.(.~.g.g.$X=X@X$X$X$X$X$X$X$X$X$X$X$X$X$X$X",
"$X$X$X$X$X$X$X$X$X$X$X$X$X$X$X$X$X$X$X$X$X$X$X$X$X$X$X$X$X$X$X$X$X$X%X*X[..X/.~./. X(.Q.d.h.*X&X#X$X$X$X$X$X$X$X$X$X$X$X$X$X$X$X",
"$X$X$X$X$X$X$X$X$X$X$X$X$X$X$X$X$X$X$X$X$X$X$X$X$X$X$X$X$X$X$X%X*X2X{.(./.~./. X(.!.k.y.l.*X*X2X$X$X$X$X$X$X$X$X$X$X$X$X$X$X$X$X",
"$X$X$X$X$X$X$X$X$X$X$X$X$X$X$X$X$X$X$X$X$X$X$X$X$X$X$X$X%X%X$X[.|./.~./.(. X X/.l.h.d.Q.%X%X#X$X$X$X$X$X$X$X$X$X$X$X$X$X$X$X$X$X",
"$X$X$X$X$X$X$X$X$X$X$X$X$X$X$X$X$X$X$X$X$X$X$X$X$X$X%X*X2X'.(.~././.(.(.(.(.!.h.h.f.Q.*X%X#X$X$X$X$X$X$X$X$X$X$X$X$X$X$X$X$X$X$X",
"$X$X$X$X$X$X$X$X$X$X$X$X$X$X$X$X$X$X$X$X$X$X$X2X=X6X}.oX(./.(.(.(.(.(. X/.h.h.h.g.E.=X%X#X3X$X$X$X$X$X$X$X$X$X$X$X$X$X$X$X$X$X$X",
"$X$X$X$X$X$X$X$X$X$X$X$X$X$X$X$X$X$X$X$X$X$X$X%XR.j.k.Q.!./.(.(. XXXXX~.Q.Q.!.f.W.=X=X#X#X#X$X$X$X$X$X$X$X$X$X$X$X$X$X$X$X$X$X$X",
"$X$X$X$X$X$X$X$X$X$X$X$X$X$X$X$X$X$X$X$X$X$X$X-XY.;.e.e.e.y.y.f.j.r.0.0.d.d.9.W.-X*X#X$X$X$X$X$X$X$X$X$X$X$X$X$X$X$X$X$X$X$X$X$X",
"$X$X$X$X$X$X$X$X$X$X$X$X$X$X$X$X$X$X$X$X$X$X$X*X*Xy.w.y.y.y.y.e.>.*.*.=.*.$.p.-X%X2X$X$X$X$X$X$X$X$X$X$X$X$X$X$X$X$X$X$X$X$X$X$X",
"$X$X$X$X$X$X$X$X$X$X$X$X$X$X$X$X$X$X$X$X$X$X$X$X;XU.q.y.y.f.9.-.-.>.8.>.%.u.:X*X2X$X$X$X$X$X$X$X$X$X$X$X$X$X$X$X$X$X$X$X$X$X$X$X",
"$X$X$X$X$X$X$X$X$X$X$X$X$X$X$X$X$X$X$X$X$X$X$X#X&X].w.y.t.7.-.>.>.>.-.%.i.:X*X$X$X$X$X$X$X$X$X$X$X$X$X$X$X$X$X$X$X$X$X$X$X$X$X$X",
"$X$X$X$X$X$X$X$X$X$X$X$X$X$X$X$X$X$X$X$X$X$X$X$X$X=Xs.,.-.-.>.>.8.:.%.U.<X*X#X$X$X$X$X$X$X$X$X$X$X$X$X$X$X$X$X$X$X$X$X$X$X$X$X$X",
"$X$X$X$X$X$X$X$X$X$X$X$X$X$X$X$X$X$X$X$X$X$X$X$X$X,XH.%.>.>.>.8.:.%.Y.<X*X#X$X$X$X$X$X$X$X$X$X$X$X$X$X$X$X$X$X$X$X$X$X$X$X$X$X$X",
"$X$X$X$X$X$X$X$X$X$X$X$X$X$X$X$X$X$X$X$X$X$X$X$X$X=X@X-.:.>.8.:.%.T.<X*X$X#X$X$X$X$X$X$X$X$X$X$X$X$X$X$X$X$X$X$X$X$X$X$X$X$X$X@X",
"$X$X$X$X$X$X$X$X$X$X$X$X$X$X$X$X$X$X$X$X$X$X$X$X$X$X,Xa.&.7.*.&.{.1X,X6X#X#X$X$X$X$X$X$X$X$X$X$X$X$X$X$X$X$X$X$X$X$X$X$X$X@X@X3X",
"$X$X$X$X$X$X$X$X$X$X$X$X$X$X$X$X$X$X$X$X$X$X$X$X$X#X>X).&.*.*._.%XZ.6.@.C.0X3X$X$X$X$X$X$X$X$X$X$X$X$X$X$X$X$X$X$X$X$X$X$X$X$X$X",
"$X$X$X$X$X$X$X$X$X$X$X$X$X$X#X$X$X$X$X$X$X$X$X$X$X$X*X=X-.&.i.<.+.( ( S G.0X#X$X$X$X$X$X#X$X$X$X$X$X$X$X$X$X$X$X$X$X$X$X$X$X$X$X",
"$X$X$X$X$X$X$X$X$X$X$X$X$X$X$X$X$X$X$X$X$X$X$X$X$X$X#X-Xi.}.4./ #.@.F R 6X0X#X$X$X$X$X$X$X$X$X$X$X$X$X$X$X$X$X$X$X$X$X$X$X$X$X$X",
"$X$X$X$X$X$X$X$X$X$X$X$X$X$X$X$X$X$X$X$X$X$X$X$X$X$X$X#X>X,XO...o.I S 3.uXK.4X$X$X$X$X$X$X$X$X$X$X$X#X3X$X$X$X$X$X$X$X$X$X$X$X$X",
"$X$X$X$X$X$X$X$X$X$X$X$X$X$X$X$X$X$X$X$X$X$X$X$X$X$X$X$X0XP.X.o.G B S [. .m 6X4X$X$X$X$X$X$X$X$X$X$X$X$X$X$X$X$X$X$X$X$X$X$X$X$X",
"$X$X$X$X$X$X$X$X$X$X$X$X$X$X$X$X$X$X$X$X$X$X$X$X$X$X$X$XwX5.C n B U 1.' z z G.rX+X$X$X$X$X$X$X$X$X$X$X$X$X$X$X$X$X$X$X$X$X$X$X$X",
"$X$X$X$X$X$X$X$X$X$X$X$X$X$X$X$X$X$X$X$X$X$X$X$X$X$X$X$X6X2.' B.I.tX| z A z ` yX$X$X$X$X$X$X$X$X$X$X$X$X$X$X$X$X$X$X$X$X$X$X$X$X",
"$X$X$X$X$X$X$X$X$X$X$X$X$X$X$X$X$X$X$X$X$X$X$X$X$X$X$X$X+X%X0XiXfX` g A G m M +X6X+X$X$X$X$X$X$X$X$X$X$X$X$X$X$X$X$X$X$X$X$X$X$X",
"$X$X$X$X$X$X$X$X$X$X$X$X$X$X$X$X$X$X$X$X$X$X$X$X$X$X$X$X$X#X0XqXY g A G A G z N.yX+X$X$X$X$X$X$X$X$X$X$X$X$X$X$X$X$X$X$X$X$X$X$X",
"$X$X$X$X$X$X$X$X$X$X$X$X$X$X$X$X$X$X$X$X$X$X$X$X$X$X$X$X#XqXqXJ g G G A G A n T qX$X$X$X$X$X$X$X$X$X$X$X$X$X$X$X$X$X$X$X$X$X$X$X",
"$X$X$X$X$X$X$X$X$X$X$X$X$X$X$X$X$X$X$X$X$X$X$X#X$X$X$X+XwX6XH z G G A A N K V f F.rX@X$X$X$X$X$X$X$X$X$X$X$X$X$X$X$X$X$X$X$X$X$X",
"$X$X$X$X$X$X$X$X$X$X$X$X$X$X$X$X$X$X$X$X$X$X$X$X$X$X+XrX6XG z G G A A G K Z l < _ dX@X$X$X$X$X$X$X$X$X$X$X$X$X$X$X$X$X$X$X$X$X$X",
"$X$X$X$X$X$X$X$X$X$X$X$X$X$X$X$X$X$X$X$X$X$X$X$X$XOXyX7XD b K G A A K G x j j d k 4X5X$X$X$X$X$X$X$X$X$X$X$X$X$X$X$X$X$X$X$X$X$X",
"$X$X$X$X$X$X$X$X$X$X$X$X$X$X$X$X$X$X$X$X$X$X$X$X#XdX$Xh f Z N A L P N l j l k l 9 c.yX+X$X$X$X$X$X$X$X$X$X$X$X$X$X$X$X$X$X$X$X$X",
"$X$X$X$X$X$X$X$X$X$X$X$X$X$X$X$X$X$X$X$X$X$X#X+XgXOX4 $ 8 7 w j j q 7 w k l x c s v eX4X$X$X$X$X$X$X$X$X$X$X$X$X$X$X$X$X$X$X$X$X",
"$X$X$X$X$X$X$X$X$X$X$X$X$X$X$X$X$X$X$X$X$X$X@XdXL., > y w y w 6 % % * = 3 5 6 , # : J.eX@X$X$X$X$X$X$X$X$X$X$X$X$X$X$X$X$X$X$X$X",
"$X$X$X$X$X$X$X$X$X$X$X$X$X$X$X$X$X$X$X$X$X+XhXF.> 1 y y y 7 3 * - 3 - ; & o . % Q M.$X4X#X$X$X$X$X$X$X$X$X$X$X$X$X$X$X$X$X$X$X$X",
"$X$X$X$X$X$X$X$X$X$X$X$X$X$X$X$X$X$X$X#X+XhXD.: 2 y y t 6 * = - 3 = + X O a z.3XgXaX$X@X$X$X$X$X$X$X$X$X$X$X$X$X$X$X$X$X$X$X$X$X",
"$X$X$X$X$X$X$X$X$X$X$X$X$X$X$X$X$X$X#X$XhXV.$ 2 y y 7 - * - 5 & o o e ~ J.pXsX8X+X@X#X$X$X$X$X$X$X$X$X$X$X$X$X$X$X$X$X$X$X$X$X$X",
"$X$X$X$X$X$X$X$X$X$X$X$X$X$X$X$X$X#X*XhXn.$ 4 u q 3 * 3 = O X @ W b.8XgXeX3X$X$X#X$X$X$X$X$X$X$X$X$X$X$X$X$X$X$X$X$X$X$X$X$X$X$X",
"$X$X$X$X$X$X$X$X$X$X$X$X$X$X$X$X+X3XhXx.# 0 y 6 - - & X o i [ OXsXsX7X+X+X$X$X$X$X$X$X$X$X$X$X$X$X$X$X$X$X$X$X$X$X$X$X$X$X$X$X$X",
"$X$X$X$X$X$X$X$X$X$X$X$X$X$X$X+X4XhX} # q w - & o X * ! S.eXgX9X$X+X$X$X$X$X$X$X$X$X$X$X$X$X$X$X$X$X$X$X$X$X$X$X$X$X$X$X$X$X$X$X",
"$X$X$X$X$X$X$X$X$X$X$X$X$X$X+X4XhX{ : 0 7 O . O p z.3XsXaX4X+X#X$X$X$X$X$X$X$X$X$X$X$X$X$X$X$X$X$X$X$X$X$X$X$X$X$X$X$X$X$X$X$X$X",
"$X$X$X$X$X$X$X$X$X$X$X$X$X+X4XhX] : , o . e ~ J.pXgX8X$X+X$X$X$X$X$X$X$X$X$X$X$X$X$X$X$X$X$X$X$X$X$X$X$X$X$X$X$X$X$X$X$X$X$X$X$X",
"$X$X$X$X$X$X$X$X$X$X$X$X+X6XhX^ X X + W v.5XgXpX3X#X$X$X$X$X$X$X$X$X$X$X$X$X$X$X$X$X$X$X$X$X$X$X$X$X$X$X$X$X$X$X$X$X$X$X$X$X$X$X",
"$X$X$X$X$X$X$X$X$X$X$X$X8XaXE   r ) OXsXsX5X+X+X$X$X$X$X$X$X$X$X$X$X$X$X$X$X$X$X$X$X$X$X$X$X$X$X$X$X$X$X$X+X$X$X$X$X$X$X$X$X$X$X",
"$X$X$X$X$X$X$X$X$X$X$X4X#XE i M.9XhX9X$X@X$X$X$X$X$X$X$X$X$X$X$X$X$X$X$X$X$X$X$X$X$X$X$X$X$X$X$X$X$X$X$X$X$X$X$X$X$X$X$X$X$X$X$X",
"$X$X$X$X$X$X$X$X$X$X$X4XA.m.dXaX4X+X$X$X$X$X$X$X$X$X$X$X$X$X$X$X$X$X$X$X$X$X$X$X$X$X$X$X$X$X$X$X$X$X$X$X$X$X$X$X$X$X$X$X$X$X$X$X",
"$X$X$X$X$X$X$X$X$X$X$X+X4X9X$X#X$X$X$X$X$X$X$X$X$X$X$X$X$X$X$X$X$X$X$X$X$X$X$X$X$X$X$X$X$X$X$X$X$X$X$X$X$X$X$X$X$X$X$X$X$X$X$X$X",
"$X$X$X$X$X$X$X$X$X$X$X$X*X2X$X$X$X$X$X$X$X$X$X$X$X$X$X$X$X$X$X$X$X$X$X$X$X$X$X$X$X$X$X$X$X$X$X$X$X$X$X$X$X$X$X$X$X$X$X$X$X$X$X$X",
"$X$X$X$X$X$X$X$X$X$X$X$X$X$X$X$X$X$X$X$X$X$X$X$X$X$X$X$X$X$X$X$X$X$X$X$X$X$X$X$X$X$X$X$X$X$X$X$X$X$X$X$X$X$X$X$X$X$X$X$X$X$X$X$X",
"$X$X$X$X$X$X$X$X$X$X$X$X$X$X$X$X$X$X$X$X$X$X$X$X$X$X$X$X$X$X$X$X$X$X$X$X$X$X$X$X$X$X$X$X$X$X$X$X$X$X$X$X$X$X$X$X$X$X$X$X$X$X$X$X",
"$X$X$X$X$X$X$X$X$X$X$X$X$X$X$X$X$X$X$X$X$X$X$X$X$X$X$X$X$X$X$X$X$X$X$X$X$X$X$X$X$X$X$X$X$X$X$X$X$X$X$X$X$X$X$X$X$X$X$X$X$X$X$X$X",
"$X$X$X$X$X$X$X$X$X$X$X$X$X$X$X$X$X$X$X$X$X$X$X$X$X$X$X$X$X$X$X$X$X$X$X$X$X$X$X$X$X$X$X$X$X$X$X$X$X$X$X$X$X$X$X$X$X$X$X$X$X$X$X$X",
"$X$X$X$X$X$X$X$X$X$X$X$X$X$X$X$X$X$X$X$X$X$X$X$X$X$X$X$X$X$X$X$X$X$X$X$X$X$X$X$X$X$X$X$X$X$X$X$X$X$X$X$X$X$X$X$X$X$X$X$X$X$X$X$X",
"$X$X$X$X$X$X$X$X$X$X$X$X$X$X$X$X$X$X$X$X$X$X$X$X$X$X$X$X$X$X$X$X$X$X$X$X$X$X$X$X$X$X$X$X$X$X$X$X$X$X$X$X$X$X$X$X$X$X$X$X$X$X$X$X"
};
