/* XPM */
static char *_ef3ea9ea72d4044d95dddd9f1a1f0a9[] = {
/* columns rows colors chars-per-pixel */
"16 16 64 1 ",
"  c #CAD8DE",
". c #C3D5DF",
"X c #B4D0E0",
"o c #A6CBE1",
"O c #74B9E4",
"+ c #BFD4DF",
"@ c #BAD3DF",
"# c #81BEE3",
"$ c #69B5E4",
"% c #8EC3E2",
"& c #C6D7DE",
"* c #97C6E2",
"= c #6CB6E4",
"- c #6AB6E4",
"; c #BBD3DF",
": c #ADCBDC",
"> c #6BB0DE",
", c #5EACDF",
"< c #7FBADF",
"1 c #A6C6D9",
"2 c #2D89C9",
"3 c #368BCA",
"4 c #378BCA",
"5 c #368ACA",
"6 c #328AC6",
"7 c #C6D6DE",
"8 c #4F9BCE",
"9 c #2787C8",
"0 c #328ACA",
"q c #2483C5",
"w c #197DC1",
"e c #89B7D4",
"r c #9CC1D8",
"t c #2586C8",
"y c #217FC2",
"u c #1873B8",
"i c #197BC0",
"p c #378DC6",
"a c #C8D7DE",
"s c #C9D8DE",
"d c #4595CB",
"f c #1870B6",
"g c #176EB4",
"h c #176FB5",
"j c #1876BB",
"k c #93BCD5",
"l c #6190C1",
"z c #1F64AE",
"x c #3271B4",
"c c #9ABAD2",
"v c #B9CCD9",
"b c #2664AE",
"n c #2060AC",
"m c #2362AD",
"M c #6B95C2",
"N c #C1D2DC",
"B c #6F98C3",
"V c #457AB7",
"C c #A9C1D4",
"Z c #BFD0DB",
"A c #356FB2",
"S c #83A6CA",
"D c #A9C0D4",
"F c #BACCD9",
/* pixels */
"                ",
"          .X    ",
"         oO+    ",
"       @#$%     ",
"     &*=$-;     ",
"    :>,,,<      ",
"    1234567     ",
"     890qwe     ",
"     rtyuipa    ",
"     sdfghjk    ",
"      lzzzxc    ",
"     vbnmMN     ",
"     BnVC       ",
"    ZASa        ",
"    DF          ",
"                "
};
