/* XPM */
static char *e07505680dfb457891771fa8397ade16[] = {
/* columns rows colors chars-per-pixel */
"32 32 123 2 ",
"   c #CAD8DE",
".  c #C3D6DF",
"X  c #C2D5DF",
"o  c #ACCDE0",
"O  c #84BFE3",
"+  c #C7D7DE",
"@  c #BED4DF",
"#  c #88C0E2",
"$  c #6AB5E4",
"%  c #A3CAE1",
"&  c #C8D7DE",
"*  c #9FC9E1",
"=  c #6FB7E4",
"-  c #69B5E4",
";  c #74B9E4",
":  c #C6D7DE",
">  c #B4D0DF",
",  c #7CBCE3",
"<  c #9DC8E1",
"1  c #91C4E2",
"2  c #6BB6E4",
"3  c #70B8E4",
"4  c #C9D8DE",
"5  c #A7CBE1",
"6  c #73B9E4",
"7  c #97C6E1",
"8  c #BBD3DF",
"9  c #6EB7E4",
"0  c #C0D5DF",
"q  c #9AC7E2",
"w  c #6AB6E5",
"e  c #92C4E2",
"r  c #C2D4DD",
"t  c #61A7D7",
"y  c #51A1D8",
"u  c #50A1D8",
"i  c #AECBDC",
"p  c #5BA1CF",
"a  c #2F89C9",
"s  c #378BCA",
"d  c #388BCA",
"f  c #2583C5",
"g  c #66A5CE",
"h  c #A7C7DA",
"j  c #2687C8",
"k  c #2887C9",
"l  c #348BCA",
"z  c #3088C8",
"x  c #197DC1",
"c  c #2382C3",
"v  c #BAD0DC",
"b  c #529DCE",
"n  c #2586C8",
"m  c #2C88C9",
"M  c #1C7FC2",
"N  c #71AAD0",
"B  c #9EC2D8",
"V  c #328ACA",
"C  c #2885C4",
"Z  c #BFD3DD",
"A  c #C9D7DE",
"S  c #4998CD",
"D  c #2280C3",
"F  c #1872B7",
"G  c #197CC0",
"H  c #7BB0D1",
"J  c #95BED7",
"K  c #2686C8",
"L  c #1870B6",
"P  c #176EB4",
"I  c #1876BB",
"U  c #2F88C5",
"Y  c #C3D5DD",
"T  c #4194CC",
"R  c #2587C9",
"E  c #1C77BC",
"W  c #1770B6",
"Q  c #197ABE",
"!  c #86B5D3",
"~  c #8CB9D6",
"^  c #2280C2",
"/  c #1873B9",
"(  c #368BC5",
")  c #C6D6DE",
"_  c #BDD0DB",
"`  c #246CB3",
"'  c #1D67B0",
"]  c #3075B6",
"[  c #B0CAD9",
"{  c #81A4C9",
"}  c #2060AC",
"|  c #2463AD",
" . c #6994C1",
".. c #BFD0DB",
"X. c #C5D4DD",
"o. c #3770B3",
"O. c #457AB7",
"+. c #A6BFD4",
"@. c #8AABCC",
"#. c #2C68B0",
"$. c #82A5C9",
"%. c #C6D5DD",
"&. c #C7D6DD",
"*. c #3E75B5",
"=. c #2161AD",
"-. c #5A89BD",
";. c #B7CAD8",
":. c #94B2CE",
">. c #2161AC",
",. c #3972B3",
"<. c #99B5D0",
"1. c #467BB8",
"2. c #2664AE",
"3. c #7199C4",
"4. c #C2D3DC",
"5. c #9EB9D1",
"6. c #4B7FB9",
"7. c #ACC3D6",
"8. c #5D8BBE",
"9. c #8AABCB",
"0. c #C8D6DD",
"q. c #C3D3DC",
"w. c #B9CCD9",
/* pixels */
"                                                                ",
"                                                                ",
"                                            . X                 ",
"                                          o O +                 ",
"                                      @ # $ %                   ",
"                                  & * = - ; :                   ",
"                                > , - - - <                     ",
"                            . 1 2 - - - 3 .                     ",
"                        4 5 6 - - - - - 7                       ",
"                      8 O - - - - - - 9 0                       ",
"                  : q 9 w w w w w w w e                         ",
"                r t y y y y y y y y u i                         ",
"                  p a s s s s s s d f g                         ",
"                  h j k l s s s s z x c v                       ",
"                  4 b n n m s s s M x x N                       ",
"                    B j n n j V f x x x C Z                     ",
"                    A S n n n D F G x x x H                     ",
"                      J K n n L P P I x x U Y                   ",
"                      + T R E P P P P W Q x !                   ",
"                        ~ ^ P P P P P P P / ( )                 ",
"                        _ ` ' ' ' ' ' ' ' ' ] [                 ",
"                        { } } } } } } } |  ...                  ",
"                      X.o.} } } } } } O.+.                      ",
"                      @.} } } } } #.$.%.                        ",
"                    &.*.} } } =.-.;.                            ",
"                    :.>.} } ,.<.4                               ",
"                  & 1.} 2.3.4.                                  ",
"                  5.>.6.7.                                      ",
"                A 8.9.0.                                        ",
"                q.w.                                            ",
"                                                                ",
"                                                                "
};
