/* XPM */
static char *_750ea3a1d6e4b80e73a0ec997525d4f[] = {
/* columns rows colors chars-per-pixel */
"16 16 77 1 ",
"  c #00002F",
". c #000438",
"X c #040B44",
"o c #000049",
"O c #002970",
"+ c #00237A",
"@ c #484761",
"# c #044AA3",
"$ c #1757AA",
"% c #1655B2",
"& c #61688C",
"* c #6B6C8B",
"= c #6F7893",
"- c #7E89AD",
"; c #0190FF",
": c #1A98FF",
"> c #2EA9FF",
", c #498BC4",
"< c #499ADD",
"1 c #6F92C2",
"2 c #5BB8FF",
"3 c #6ABFF7",
"4 c #7FC4FB",
"5 c #9593A7",
"6 c #8092B3",
"7 c #97A5BA",
"8 c #95A8C1",
"9 c #82BFEB",
"0 c #BECFD7",
"q c #8AC5EF",
"w c #9CC6E5",
"e c #8AC6F3",
"r c #9CCFFE",
"t c #B1CAE1",
"y c #AFD1E8",
"u c #B1D1E5",
"i c #AFD5F0",
"p c #C0C2CC",
"a c #C4D0DA",
"s c #C5D3DA",
"d c #C4D5DE",
"f c #C9D7DC",
"g c #C8D7DF",
"h c #CFD9DB",
"j c #CBD8DD",
"k c #C8D8DF",
"l c #C9D8DF",
"z c #CAD8DE",
"x c #CFDBDD",
"c c #DFDED5",
"v c #DCDDD7",
"b c #D7DCD8",
"n c #D0D9DC",
"m c #D1DADC",
"M c #DADDDA",
"N c #E0DED8",
"B c #EDE4D5",
"V c #ECE4D7",
"C c #CBDAE0",
"Z c #CFDEE1",
"A c #D0E0E4",
"S c #D5E3E7",
"D c #D8E3E3",
"F c #DBE3E3",
"G c #D8E4E1",
"H c #D8E7EA",
"J c #DEE9EB",
"K c #E6E9E1",
"L c #EEF5EB",
"P c #E3F0F1",
"I c #ECF4F7",
"U c #EBF9F8",
"Y c #F3FDF5",
"T c #F8FFF5",
"R c #F4FFFE",
"E c #FAFFFF",
"W c #FFFFFE",
/* pixels */
"zzzzzzzzzzzzzzkz",
"zzzzzzzzzzzbzzzz",
"zzzzzzzzzbMiumzz",
"zzzzzzMvjg4ezjzz",
"zzzzzzuir2eNmgzz",
"zzzzjN3>:9Bjzzzz",
"zzzzgVw;qBCCzzzz",
"zzzzzjF<,Gbgzzzz",
"zzzzggK0$1Lggzzz",
"zzzzggTt%#jGgjzz",
"zzzzfW8+Oo6Ygzzz",
"zzaZW- .@5aAgzzz",
"zkjJ&X*pIRGagjzz",
"zzH7=GEPjagzjjzz",
"zzsAUSazzzzzzzzz",
"zzzzszzzzzzzzzzz"
};
